<svg id="Layer_1" data-name="Layer 1" xmlns="http://www.w3.org/2000/svg" xmlns:xlink="http://www.w3.org/1999/xlink" width="130.12" height="162.46" viewBox="0 0 130.12 162.46"><defs><linearGradient id="linear-gradient" x1="-121.04" y1="890.96" x2="-119.69" y2="889.42" gradientTransform="matrix(76.89, 0, 0, -73.85, 9638, 66141.62)" gradientUnits="userSpaceOnUse"><stop offset="0" stop-color="#01bbef"/><stop offset="1" stop-color="#0074bc"/></linearGradient></defs><title>PlayStation Store logo - Brandlogos.net</title><path d="M375.31,308.5a6.51,6.51,0,0,1,3.2.48c-7,9.6-8.25,27.63-8.46,34.47h4.82c.27-8.92,2-24.31,7.53-31.65,6.4,6.72,10.59,21.44,11.89,31.65h4.88c-1.31-11.09-5.81-27-13.15-34.89a7.59,7.59,0,0,1,3.49-.89c2.25,0,4.34,1.07,6.4,3.31,7.1,7.78,10.23,25.78,10.92,32.47h4.83c-.59-7.47-3.76-24.54-10.62-33.87-3.34-4.55-7.21-6.83-11.52-6.81a12.21,12.21,0,0,0-7.42,2.52,11.64,11.64,0,0,0-7.25-1.66c-12.81,1.31-16.33,21.43-16.8,39.83h4.84C363.41,321.93,367.87,309.26,375.31,308.5Z" transform="translate(-318.94 -302.77)" style="fill:#f48250"/><path d="M443.65,343.24a1.2,1.2,0,0,0-1.26-1.07l-12.86-1.86a1.36,1.36,0,0,0-.36,0c-5,0-23.11-.06-51.4-.06s-46.56.35-51.5.46a1.42,1.42,0,0,0-1.44,1.27c-.29,4.9-1.42,24.11-3,53.63-1.68,31.22-2.64,48.26-2.87,52.77a1.31,1.31,0,0,0,1.16,1.31l51.22,7.8,50.59,7.72a1.62,1.62,0,0,0,1.14-.26h0l25-16.13a2.2,2.2,0,0,0,1-1.93Z" transform="translate(-318.94 -302.77)" style="fill:url(#linear-gradient)"/><path d="M379.32,375.1c-1.69-.53-2.74,1.07-2.74,3.39v50.09l-13.52-4.27V364.56a165.12,165.12,0,0,1,18.62,5.1C393.12,373.6,397,378.5,397,389.48c0,10.76-6.63,14.83-15,10.76v-20C382,377.9,381.53,375.72,379.32,375.1Zm29.47,31.43a43.21,43.21,0,0,0-18.74-2.22A49.09,49.09,0,0,0,380,406.44l-.83.27v8.14l14.49-5.11a14.7,14.7,0,0,1,8.11-.42c2,.65,1.61,1.89-.84,2.8l-21.73,7.74v7.82l29.52-10.6s4-1.48,5.61-3.51S415.18,408.56,408.79,406.53Zm-75.18,4.59c-3,2.22-1.89,6.07,4.65,7.9a43.41,43.41,0,0,0,20.82,1.71l1.36-.21v-7l-6.7,2.41a14.25,14.25,0,0,1-8.09.43c-2-.65-1.61-1.9.85-2.79l13.94-5v-7.85l-19.38,6.9a31.84,31.84,0,0,0-7.45,3.54Zm71.57,17.45H406v-5.71h1.88v-.66h-4.6v.66h1.93Zm4.9-6.4h-1.31v6.4h.74v-5.81h0l1.84,5.81h1l1.91-5.81h0v5.81H415v-6.4h-1.33l-1.8,5.7h0Z" transform="translate(-318.94 -302.77)" style="fill:#fff"/></svg>